<svg xmlns="http://www.w3.org/2000/svg" viewBox="0 0 64 64" fill="none">
  <rect width="64" height="64" rx="12" fill="#0A4D68"/>
  <path d="M10 38h44v5a2 2 0 0 1-2 2H12a2 2 0 0 1-2-2v-5z" fill="#fff"/>
  <path d="M13 38l5-12h28l5 12H13z" fill="#e0f0f8"/>
  <path d="M18 26l-5 12h38l-5-12H18z" fill="#fff"/>
  <rect x="10" y="37" width="44" height="3" rx="1" fill="#0A4D68"/>
  <circle cx="20" cy="43" r="5" fill="#0A4D68" stroke="#fff" stroke-width="2"/>
  <circle cx="20" cy="43" r="2" fill="#fff"/>
  <circle cx="44" cy="43" r="5" fill="#0A4D68" stroke="#fff" stroke-width="2"/>
  <circle cx="44" cy="43" r="2" fill="#fff"/>
  <rect x="24" y="28" width="10" height="7" rx="1" fill="#7ec8e3"/>
  <rect x="36" y="28" width="8" height="7" rx="1" fill="#7ec8e3"/>
  <rect x="14" y="29" width="8" height="6" rx="1" fill="#7ec8e3"/>
  <path d="M10 38h44" stroke="#0A4D68" stroke-width="1"/>
  <rect x="8" y="36" width="4" height="5" rx="1" fill="#f59e0b"/>
  <rect x="52" y="36" width="4" height="5" rx="1" fill="#f59e0b"/>
</svg>
